<?xml version="1.0" encoding="utf-8"?>
<!-- Generator: Adobe Illustrator 16.0.0, SVG Export Plug-In . SVG Version: 6.00 Build 0)  -->
<!DOCTYPE svg PUBLIC "-//W3C//DTD SVG 1.1//EN" "http://www.w3.org/Graphics/SVG/1.1/DTD/svg11.dtd">
<svg version="1.1" id="Layer_1" xmlns="http://www.w3.org/2000/svg" xmlns:xlink="http://www.w3.org/1999/xlink" x="0px" y="0px"
	 width="100px" height="100px" viewBox="0 0 100 100" style="enable-background:new 0 0 100 100;" xml:space="preserve">
<path d="M87.951,58.37c-0.996-1.288-2.977-1.007-7.303-0.399c-9.166,1.293-26.227,3.699-32.947-11.058
	c-7.418-16.28,1.786-26.505,7.285-32.616c2.621-2.913,4.354-4.836,3.49-6.776c-0.738-1.658-2.873-2.246-8.157-2.246
	c-22.317,0-38.516,16.289-38.516,38.73c0,7.802,2.368,15.353,6.849,21.832c0.466,0.681,1.399,0.849,2.075,0.379
	c0.678-0.468,0.848-1.397,0.379-2.075c-4.134-5.979-6.318-12.941-6.318-20.135c0-21.047,14.612-35.746,35.531-35.746
	c3.577,0,4.864,0.312,5.312,0.496c-0.343,0.743-1.728,2.282-2.862,3.545c-5.597,6.218-16.013,17.79-7.784,35.849
	c7.646,16.79,26.853,14.081,36.081,12.777c1.371-0.192,2.867-0.403,3.865-0.47c-4.344,9.758-11.572,16.29-20.975,18.928
	c-0.793,0.223-1.256,1.047-1.033,1.842c0.186,0.657,0.784,1.088,1.436,1.088c0.135,0,0.271-0.018,0.406-0.056
	c10.664-2.991,18.756-10.52,23.397-21.767C88.611,59.402,88.166,58.646,87.951,58.37z"/>
<path d="M36.844,73.92h7.121c0.618,0,1.119-0.501,1.119-1.119c0-0.617-0.501-1.119-1.119-1.119h-7.069l5.58-5.343
	c0.448-0.429,0.462-1.137,0.035-1.583c-0.428-0.447-1.137-0.462-1.583-0.035l-5.842,5.596v-7.121c0-0.617-0.501-1.118-1.119-1.118
	c-0.618,0-1.119,0.501-1.119,1.118V70l-5.737-5.629c-0.441-0.436-1.15-0.428-1.583,0.015c-0.433,0.442-0.427,1.149,0.015,1.583
	l5.823,5.713H23.45c-0.618,0-1.119,0.502-1.119,1.119c0,0.618,0.501,1.119,1.119,1.119h7.872l-5.769,5.525
	c-0.447,0.43-0.462,1.138-0.035,1.582c0.22,0.23,0.515,0.347,0.809,0.347c0.278,0,0.557-0.104,0.774-0.312l5.748-5.504v6.849
	c0,0.618,0.501,1.118,1.119,1.118c0.618,0,1.119-0.5,1.119-1.118v-7.076l5.832,5.724c0.219,0.213,0.501,0.319,0.784,0.319
	c0.29,0,0.58-0.112,0.798-0.335c0.433-0.441,0.427-1.15-0.015-1.583L36.844,73.92z"/>
<path d="M57.893,86.4h-3.444l2.788-2.67c0.447-0.428,0.462-1.137,0.033-1.582c-0.428-0.448-1.137-0.461-1.582-0.034l-2.996,2.868
	v-3.534c0-0.618-0.5-1.119-1.118-1.119s-1.119,0.501-1.119,1.119v3.319l-2.926-2.871c-0.443-0.435-1.151-0.428-1.583,0.016
	c-0.433,0.441-0.427,1.148,0.015,1.582l2.962,2.906h-3.997c-0.618,0-1.119,0.502-1.119,1.119c0,0.619,0.501,1.119,1.119,1.119h3.951
	l-2.906,2.783c-0.447,0.43-0.462,1.137-0.035,1.583c0.22,0.229,0.515,0.345,0.809,0.345c0.278,0,0.557-0.104,0.773-0.311
	l2.937-2.812v3.364c0,0.618,0.501,1.119,1.119,1.119s1.118-0.501,1.118-1.119V90.1l2.985,2.932c0.22,0.214,0.503,0.32,0.784,0.32
	c0.29,0,0.58-0.112,0.799-0.336c0.434-0.44,0.428-1.148-0.015-1.582l-2.849-2.793h3.496c0.616,0,1.119-0.502,1.119-1.119
	C59.012,86.902,58.51,86.4,57.893,86.4z"/>
</svg>
