<?xml version="1.0" encoding="utf-8"?>
<!-- Generator: Adobe Illustrator 16.0.0, SVG Export Plug-In . SVG Version: 6.00 Build 0)  -->
<!DOCTYPE svg PUBLIC "-//W3C//DTD SVG 1.1//EN" "http://www.w3.org/Graphics/SVG/1.1/DTD/svg11.dtd">
<svg version="1.1" id="Layer_1" xmlns="http://www.w3.org/2000/svg" xmlns:xlink="http://www.w3.org/1999/xlink" x="0px" y="0px"
	 width="100px" height="100px" viewBox="0 0 100 100" style="enable-background:new 0 0 100 100;" xml:space="preserve">
<path d="M89.275,43.084c-2.354-1.177-4.409-1.424-5.773-1.39c-0.021-2.346-0.754-6.578-5.211-9.773
	c-3.016-2.162-5.129-2.546-8.212-2.405c-2.767-9.432-11.427-15.968-21.323-15.968c-2.771,0-5.411,0.532-7.859,1.46
	c-0.772-1.441-1.88-2.693-3.322-3.728c-3.062-2.196-5.042-2.305-8.55-2.018c-3.523,0.285-7.552,3.75-8.88,6.079
	c-1.26-0.181-3.483-0.261-5.354,0.945c-2.486,1.604-3.055,4.365-3.17,5.916c-2.562,0.804-6.193,3.035-6.502,7.43
	c-0.255,3.583,0.907,5.636,1.926,6.729c1.021,1.095,2.407,1.749,3.703,1.749c0.002,0,0.005,0,0.005,0H26.65
	c0.872,8.45,6.446,15.642,14.506,18.565c0.793,3.923,3.382,5.279,4.318,5.644c0.683,0.263,1.45-0.074,1.714-0.758
	c0.264-0.682-0.075-1.447-0.757-1.713c-0.754-0.293-3.185-1.631-2.833-6.597c0.361-5.114,6.206-6.278,6.451-6.325
	c0.667-0.123,1.135-0.729,1.081-1.407c-0.004-0.038-0.271-3.837,2.396-5.556c2.058-1.327,4.998-0.525,5.024-0.519
	c0.519,0.15,1.063-0.026,1.396-0.441c0.068-0.084,0.418-0.525,0.64-0.966c0.944-1.875,4.938-5.52,8.14-5.78
	c3.576-0.293,5.194-0.212,8.022,1.816c4.946,3.547,4.065,8.646,4.026,8.856c-0.088,0.448,0.066,0.908,0.399,1.22
	c0.335,0.314,0.812,0.429,1.252,0.312c0.099-0.027,2.438-0.621,5.667,0.994c5.066,2.529,4.184,8.359,3.954,9.502
	c-1.032,5.159-5.729,5.1-6.323,5.066H74.427c-0.731,0-1.323,0.593-1.323,1.324c0,0.732,0.592,1.324,1.323,1.324l11.222-0.003
	c0.123,0.008,0.25,0.011,0.381,0.011c2.685,0,7.467-1.467,8.615-7.203C95.497,51.207,94.536,45.711,89.275,43.084z M10.75,35.46
	L10.75,35.46c-0.426,0-1.146-0.238-1.77-0.907c-0.66-0.708-1.407-2.104-1.221-4.735c0.301-4.261,5.204-5.243,5.409-5.282l1.165-0.22
	l-0.084-1.182c-0.002-0.031-0.2-3.219,1.978-4.624c1.702-1.097,4.162-0.429,4.181-0.424l0.843,0.243l0.552-0.683
	c0.061-0.075,0.373-0.468,0.573-0.866c0.799-1.583,4.166-4.661,6.863-4.881c3.103-0.249,4.398-0.184,6.791,1.531
	c1.046,0.75,1.857,1.644,2.437,2.658c-7.001,3.673-11.81,10.959-11.933,19.371L10.75,35.46L10.75,35.46z M58.3,36.693
	c-1.394-0.221-4.022-0.369-6.211,1.043c-2.893,1.865-3.491,5.12-3.596,6.847c-2.92,0.878-7.179,3.412-7.536,8.481
	c-0.017,0.234-0.017,0.451-0.023,0.678c-7.113-3.082-11.769-10.053-11.769-17.956c0-10.803,8.788-19.59,19.591-19.59
	c8.557,0,16.062,5.547,18.645,13.605C63.609,30.678,59.607,34.272,58.3,36.693z"/>
<path d="M66.609,60.966h-3.904l3.127-2.995c0.396-0.38,0.41-1.009,0.031-1.404c-0.381-0.397-1.01-0.407-1.404-0.03l-3.327,3.187
	v-3.979c0-0.548-0.444-0.993-0.993-0.993c-0.548,0-0.992,0.445-0.992,0.993v3.763l-3.254-3.193
	c-0.394-0.383-1.021-0.379-1.404,0.014c-0.385,0.393-0.379,1.021,0.013,1.404l3.3,3.236h-4.466c-0.549,0-0.993,0.445-0.993,0.993
	c0,0.549,0.444,0.994,0.993,0.994h4.424l-3.247,3.11c-0.398,0.381-0.41,1.01-0.031,1.404c0.194,0.204,0.455,0.307,0.718,0.307
	c0.247,0,0.493-0.092,0.687-0.274l3.264-3.125v3.8c0,0.549,0.444,0.993,0.992,0.993c0.549,0,0.993-0.444,0.993-0.993v-3.939
	l3.317,3.257c0.193,0.188,0.445,0.284,0.695,0.284c0.258,0,0.516-0.101,0.709-0.299c0.385-0.392,0.379-1.021-0.014-1.403l-3.18-3.12
	h3.947c0.549,0,0.994-0.445,0.994-0.994C67.604,61.411,67.157,60.966,66.609,60.966z"/>
<path d="M63.323,80.771h-4.044l3.232-3.099c0.396-0.38,0.409-1.009,0.03-1.403c-0.38-0.398-1.009-0.41-1.403-0.031l-3.436,3.289
	v-4.114c0-0.548-0.445-0.993-0.993-0.993c-0.549,0-0.993,0.445-0.993,0.993v3.896l-3.363-3.299
	c-0.393-0.386-1.021-0.378-1.403,0.014c-0.384,0.392-0.38,1.021,0.013,1.403l3.408,3.345h-4.614c-0.549,0-0.993,0.444-0.993,0.994
	c0,0.547,0.444,0.992,0.993,0.992h4.575l-3.359,3.219c-0.396,0.381-0.41,1.01-0.031,1.404c0.195,0.205,0.457,0.307,0.719,0.307
	c0.247,0,0.494-0.092,0.688-0.274l3.371-3.229v3.936c0,0.548,0.444,0.992,0.993,0.992c0.548,0,0.993-0.444,0.993-0.992v-4.075
	l3.426,3.36c0.193,0.191,0.444,0.285,0.695,0.285c0.258,0,0.515-0.101,0.709-0.297c0.384-0.394,0.379-1.021-0.014-1.406
	l-3.289-3.228h4.092c0.548,0,0.992-0.444,0.992-0.993C64.316,81.216,63.871,80.771,63.323,80.771z"/>
<path d="M42.062,69.609h-4.044l3.233-3.099c0.397-0.38,0.41-1.009,0.031-1.403c-0.38-0.397-1.009-0.41-1.404-0.031l-3.435,3.29
	v-4.115c0-0.548-0.445-0.993-0.993-0.993c-0.548,0-0.993,0.445-0.993,0.993v3.896l-3.363-3.299
	c-0.393-0.385-1.021-0.379-1.404,0.014c-0.384,0.392-0.379,1.021,0.013,1.404l3.408,3.344h-4.615c-0.548,0-0.993,0.445-0.993,0.994
	c0,0.547,0.445,0.992,0.993,0.992h4.576l-3.36,3.219c-0.397,0.381-0.41,1.01-0.031,1.404c0.195,0.205,0.457,0.307,0.718,0.307
	c0.247,0,0.494-0.092,0.687-0.274l3.372-3.229v3.937c0,0.549,0.445,0.993,0.993,0.993c0.548,0,0.993-0.444,0.993-0.993V72.88
	l3.426,3.361c0.194,0.188,0.445,0.284,0.696,0.284c0.257,0,0.515-0.101,0.709-0.297c0.384-0.394,0.379-1.021-0.013-1.405
	l-3.29-3.228h4.092c0.548,0,0.994-0.445,0.994-0.994C43.055,70.055,42.61,69.609,42.062,69.609z"/>
</svg>
