<?xml version="1.0" encoding="utf-8"?>
<!-- Generator: Adobe Illustrator 16.0.0, SVG Export Plug-In . SVG Version: 6.00 Build 0)  -->
<!DOCTYPE svg PUBLIC "-//W3C//DTD SVG 1.1//EN" "http://www.w3.org/Graphics/SVG/1.1/DTD/svg11.dtd">
<svg version="1.1" id="Layer_1" xmlns="http://www.w3.org/2000/svg" xmlns:xlink="http://www.w3.org/1999/xlink" x="0px" y="0px"
	 width="100px" height="100px" viewBox="0 0 100 100" style="enable-background:new 0 0 100 100;" xml:space="preserve">
<path d="M87.688,62.795c-0.179-0.717-0.908-1.152-1.625-0.975c-0.094,0.023-0.228,0.062-0.4,0.113
	c-1.932,0.559-4.15,0.975-6.624,1.25c1.608-2.347,3.01-4.968,4.142-7.85c0.375-0.955,0.026-1.605-0.214-1.91
	c-0.903-1.136-2.604-0.883-6.327-0.333c-7.863,1.165-22.506,3.335-28.28-9.98c-6.398-14.751,1.534-24.009,6.273-29.54
	c2.271-2.65,3.769-4.401,2.974-6.132c-0.674-1.466-2.52-1.985-7.053-1.985c-19.239,0-33.201,14.721-33.201,35.003
	c0,7.09,2.069,13.932,5.971,19.818c-6.17,0.477-9.217,1.496-9.456,1.578c-0.7,0.242-1.069,1.006-0.826,1.705
	c0.243,0.698,1.007,1.07,1.705,0.826c0.111-0.037,11.249-3.769,35.48,0.059c7.772,1.228,14.807,1.841,20.933,1.841
	c6.017,0,11.155-0.593,15.25-1.778l0.307-0.086C87.434,64.24,87.869,63.514,87.688,62.795z M50.643,61.798
	c-10.324-1.631-18.322-1.926-24.19-1.702c-0.256-0.349-0.503-0.701-0.746-1.058c-3.712-5.497-5.675-11.921-5.675-18.58
	c0-19.032,12.552-32.323,30.521-32.323c3.08,0,4.164,0.281,4.53,0.441c-0.268,0.661-1.486,2.086-2.486,3.252
	c-4.81,5.613-13.762,16.061-6.696,32.35c6.594,15.2,23.167,12.745,31.129,11.565c1.154-0.171,2.412-0.357,3.262-0.419
	c-1.167,2.764-2.588,5.267-4.229,7.449c-0.179,0.234-0.364,0.463-0.549,0.693C68.589,63.846,60.104,63.29,50.643,61.798z"/>
<g>
	<g>
		<path d="M71.158,80.449c-6.126,0-13.16-0.615-20.933-1.844c-24.122-3.805-35.372-0.094-35.483-0.057
			c-0.699,0.24-1.461-0.132-1.702-0.83c-0.241-0.697,0.128-1.459,0.826-1.701c0.472-0.164,11.887-3.988,36.776-0.058
			c14.811,2.338,27.248,2.386,35.02,0.136c0.174-0.051,0.309-0.088,0.4-0.111c0.717-0.18,1.446,0.257,1.625,0.974
			c0.182,0.718-0.256,1.446-0.974,1.625l-0.307,0.087C82.312,79.855,77.175,80.449,71.158,80.449z"/>
	</g>
</g>
<g>
	<g>
		<path d="M71.157,94.611c-6.125,0-13.159-0.613-20.932-1.842c-24.122-3.808-35.372-0.096-35.483-0.057
			c-0.699,0.238-1.461-0.132-1.702-0.831c-0.241-0.696,0.128-1.458,0.826-1.7c0.472-0.166,11.887-3.988,36.776-0.06
			c14.811,2.339,27.246,2.387,35.02,0.136c0.174-0.049,0.309-0.088,0.4-0.111c0.717-0.178,1.446,0.256,1.625,0.975
			c0.182,0.719-0.256,1.445-0.974,1.625l-0.308,0.087C82.312,94.02,77.175,94.611,71.157,94.611z"/>
	</g>
</g>
<g>
	<path style="stroke:#231F20;stroke-width:2;stroke-miterlimit:10;" d="M25.743,61.378"/>
</g>
</svg>
